<?xml version="1.0" encoding="utf-8"?>
<!-- Generator: Adobe Illustrator 19.0.0, SVG Export Plug-In . SVG Version: 6.00 Build 0)  -->
<svg version="1.1" id="Layer_1" xmlns="http://www.w3.org/2000/svg" xmlns:xlink="http://www.w3.org/1999/xlink" x="0px" y="0px"
	 viewBox="0 0 1024 1024" enable-background="new 0 0 1024 1024" xml:space="preserve">
<circle id="XMLID_1_" fill="none" stroke="#ffffff" stroke-width="64" stroke-miterlimit="10" cx="511.6" cy="511.6" r="475"/>
<path id="XMLID_3_" fill="#ffffff" d="M670.1,302.9l-249.4,78.8c-10.9,3.5-18.4,13.5-18.4,25v217c-11.5-4.4-25-7-39.4-7
	c-43.5,0-78.8,23.5-78.8,52.5s35.3,52.5,78.8,52.5s78.8-23.5,78.8-52.5V482.5l223.1-70.5v159.2c-11.5-4.4-25-7-39.4-7
	c-43.5,0-78.8,23.5-78.8,52.5s35.3,52.5,78.8,52.5s78.8-23.5,78.8-52.5V328C704.2,310,686.9,297.5,670.1,302.9z"/>
</svg>
